<svg width="auto" height="auto" viewBox="0 0 16 16" fill="none" xmlns="http://www.w3.org/2000/svg">
<g clip-path="url(#clip0_350_301)">
<path d="M8 0C12.4183 0 16 3.58172 16 8C16 12.4183 12.4183 16 8 16C3.58172 16 0 12.4183 0 8C0 3.58172 3.58172 0 8 0ZM7.99695 6.59944C7.58675 6.59971 7.24887 6.90872 7.20292 7.30656L7.1976 7.39984L7.20048 11.8004L7.20592 11.8937C7.25239 12.2915 7.59068 12.6001 8.00088 12.5998C8.41109 12.5995 8.74897 12.2905 8.79491 11.8927L8.80023 11.7994L8.79735 7.3988L8.79191 7.30552C8.74545 6.90774 8.40716 6.59917 7.99695 6.59944ZM8.00036 3.60027C7.44749 3.60027 6.9993 4.04846 6.9993 4.60133C6.9993 5.1542 7.44749 5.60239 8.00036 5.60239C8.55323 5.60239 9.00142 5.1542 9.00142 4.60133C9.00142 4.04846 8.55323 3.60027 8.00036 3.60027Z" fill="url(#paint0_linear_350_301)"/>
</g>
<defs>
<linearGradient id="paint0_linear_350_301" x1="0" y1="0" x2="16" y2="16" gradientUnits="userSpaceOnUse">
<stop stop-color="#3388FF"/>
<stop offset="1" stop-color="#006AFF"/>
</linearGradient>
<clipPath id="clip0_350_301">
<rect width="16" height="16" fill="white"/>
</clipPath>
</defs>
</svg>
