<svg width="auto" height="auto" viewBox="0 0 16 16" fill="none" xmlns="http://www.w3.org/2000/svg">
<path d="M7.99521 0C6.87959 0 5.9752 0.904385 5.9752 2.02C5.9752 3.13562 6.87959 4.04 7.99521 4.04C9.11082 4.04 10.0152 3.13562 10.0152 2.02C10.0152 0.904385 9.11082 0 7.99521 0ZM14.7371 3.65108C14.4491 2.77516 13.4905 2.31443 12.6266 2.6367L11.3285 3.12096C11.1805 3.17614 11.06 3.28687 10.9925 3.42958C10.463 4.5487 9.32447 5.32079 8.00679 5.32079C6.69217 5.32079 5.55585 4.5523 5.02479 3.43736C4.95713 3.29531 4.83687 3.18515 4.68945 3.13016L3.37324 2.63925C2.50493 2.3154 1.5423 2.78396 1.26152 3.66714C1.00593 4.47112 1.40958 5.33676 2.18976 5.65775L4.76316 6.71653V9.26L3.17026 13.8763C2.88641 14.6989 3.32086 15.5962 4.1422 15.8838C4.95473 16.1682 5.84548 15.7501 6.14582 14.9433L7.63724 10.9369C7.76258 10.6002 8.23857 10.5995 8.36495 10.9358L9.88567 14.9829C10.2074 15.8392 11.1909 16.2395 12.0192 15.8512C12.7449 15.511 13.0973 14.6783 12.8362 13.9205L11.2272 9.25V6.71747L13.809 5.66166C14.5981 5.33895 15.0034 4.46099 14.7371 3.65108Z" fill="url(#paint0_linear_351_277)"/>
<defs>
<linearGradient id="paint0_linear_351_277" x1="1.185" y1="0" x2="16.9823" y2="13.4609" gradientUnits="userSpaceOnUse">
<stop stop-color="#3388FF"/>
<stop offset="1" stop-color="#006AFF"/>
</linearGradient>
</defs>
</svg>
