<svg width="auto" height="auto" viewBox="0 0 18 17" fill="none" xmlns="http://www.w3.org/2000/svg">
<path d="M16.0146 8.40563V14.537C16.0146 14.7977 15.9612 15.0467 15.8543 15.2839C15.7474 15.5211 15.604 15.7297 15.4241 15.9095C15.2443 16.0894 15.0357 16.2328 14.7985 16.3397C14.5613 16.4466 14.3123 16.5 14.0516 16.5H12.0104C11.8697 16.5 11.738 16.4739 11.6155 16.4218C11.493 16.3697 11.3874 16.2993 11.2987 16.2106C11.2101 16.122 11.1397 16.0164 11.0876 15.8939C11.0355 15.7714 11.0094 15.6397 11.0094 15.499V11.4948C11.0094 11.3592 10.9833 11.2302 10.9312 11.1077C10.879 10.9851 10.8073 10.8783 10.7161 10.787C10.6249 10.6958 10.518 10.6241 10.3955 10.5719C10.2729 10.5198 10.1439 10.4937 10.0083 10.4937H8.00626C7.86548 10.4937 7.73515 10.5198 7.61522 10.5719C7.4953 10.6241 7.38972 10.6958 7.29849 10.787C7.20725 10.8783 7.13555 10.9838 7.08342 11.1038C7.03129 11.2237 7.00521 11.354 7.00521 11.4948V15.499C7.00521 15.6397 6.97914 15.7701 6.92701 15.89C6.87487 16.0099 6.80317 16.1155 6.71194 16.2067C6.6207 16.298 6.51512 16.3697 6.3952 16.4218C6.27528 16.4739 6.14494 16.5 6.00417 16.5H3.96298C3.70229 16.5 3.45334 16.4466 3.21611 16.3397C2.97888 16.2328 2.77033 16.0894 2.59046 15.9095C2.41058 15.7297 2.2672 15.5211 2.16032 15.2839C2.05344 15.0467 2 14.7977 2 14.537V8.40563C2 8.2075 2.0378 8.0159 2.1134 7.83081C2.189 7.64573 2.29718 7.48279 2.43796 7.34202L7.77164 2.01616C7.93848 1.84932 8.12748 1.72159 8.33863 1.63295C8.54979 1.54432 8.77268 1.5 9.0073 1.5C9.24192 1.5 9.46481 1.54432 9.67596 1.63295C9.88712 1.72159 10.0761 1.84932 10.243 2.01616L15.5766 7.34202C15.7174 7.48279 15.8256 7.64573 15.9012 7.83081C15.9768 8.0159 16.0146 8.2075 16.0146 8.40563Z" fill="url(#paint0_linear_349_274)"/>
<path d="M16.0146 8.40563V14.537C16.0146 14.7977 15.9612 15.0467 15.8543 15.2839C15.7474 15.5211 15.604 15.7297 15.4241 15.9095C15.2443 16.0894 15.0357 16.2328 14.7985 16.3397C14.5613 16.4466 14.3123 16.5 14.0516 16.5H12.0104C11.8697 16.5 11.738 16.4739 11.6155 16.4218C11.493 16.3697 11.3874 16.2993 11.2987 16.2106C11.2101 16.122 11.1397 16.0164 11.0876 15.8939C11.0355 15.7714 11.0094 15.6397 11.0094 15.499V11.4948C11.0094 11.3592 10.9833 11.2302 10.9312 11.1077C10.879 10.9851 10.8073 10.8783 10.7161 10.787C10.6249 10.6958 10.518 10.6241 10.3955 10.5719C10.2729 10.5198 10.1439 10.4937 10.0083 10.4937H8.00626C7.86548 10.4937 7.73515 10.5198 7.61522 10.5719C7.4953 10.6241 7.38972 10.6958 7.29849 10.787C7.20725 10.8783 7.13555 10.9838 7.08342 11.1038C7.03129 11.2237 7.00521 11.354 7.00521 11.4948V15.499C7.00521 15.6397 6.97914 15.7701 6.92701 15.89C6.87487 16.0099 6.80317 16.1155 6.71194 16.2067C6.6207 16.298 6.51512 16.3697 6.3952 16.4218C6.27528 16.4739 6.14494 16.5 6.00417 16.5H3.96298C3.70229 16.5 3.45334 16.4466 3.21611 16.3397C2.97888 16.2328 2.77033 16.0894 2.59046 15.9095C2.41058 15.7297 2.2672 15.5211 2.16032 15.2839C2.05344 15.0467 2 14.7977 2 14.537V8.40563C2 8.2075 2.0378 8.0159 2.1134 7.83081C2.189 7.64573 2.29718 7.48279 2.43796 7.34202L7.77164 2.01616C7.93848 1.84932 8.12748 1.72159 8.33863 1.63295C8.54979 1.54432 8.77268 1.5 9.0073 1.5C9.24192 1.5 9.46481 1.54432 9.67596 1.63295C9.88712 1.72159 10.0761 1.84932 10.243 2.01616L15.5766 7.34202C15.7174 7.48279 15.8256 7.64573 15.9012 7.83081C15.9768 8.0159 16.0146 8.2075 16.0146 8.40563Z" fill="url(#paint1_radial_349_274)" fill-opacity="0.2"/>
<g filter="url(#filter0_f_349_274)">
<path d="M2.0625 9.65625L9.09375 2.75L16.0312 9.65625" stroke="black" stroke-opacity="0.34" stroke-width="0.625"/>
</g>
<path d="M2.0073 9.0625L8.34143 2.7001C8.70845 2.33143 9.30547 2.3321 9.67168 2.70159L15.976 9.0625" stroke="url(#paint2_radial_349_274)" stroke-width="2" stroke-linecap="round"/>
<path d="M2.0073 9.0625L8.34143 2.7001C8.70845 2.33143 9.30547 2.3321 9.67168 2.70159L15.976 9.0625" stroke="url(#paint3_linear_349_274)" stroke-opacity="0.2" stroke-width="2" stroke-linecap="round"/>
<defs>
<filter id="filter0_f_349_274" x="0.34352" y="0.810521" width="17.4082" height="10.5687" filterUnits="userSpaceOnUse" color-interpolation-filters="sRGB">
<feFlood flood-opacity="0" result="BackgroundImageFix"/>
<feBlend mode="normal" in="SourceGraphic" in2="BackgroundImageFix" result="shape"/>
<feGaussianBlur stdDeviation="0.75" result="effect1_foregroundBlur_349_274"/>
</filter>
<linearGradient id="paint0_linear_349_274" x1="6.375" y1="6.03125" x2="16" y2="16.5" gradientUnits="userSpaceOnUse">
<stop stop-color="#D5D5D5"/>
<stop offset="1" stop-color="#A2A2A2"/>
</linearGradient>
<radialGradient id="paint1_radial_349_274" cx="0" cy="0" r="1" gradientUnits="userSpaceOnUse" gradientTransform="translate(5.25 16.5) rotate(21.9369) scale(14.7222 13.755)">
<stop stop-opacity="0.23"/>
<stop offset="1" stop-opacity="0"/>
</radialGradient>
<radialGradient id="paint2_radial_349_274" cx="0" cy="0" r="1" gradientUnits="userSpaceOnUse" gradientTransform="translate(8.0625 2) rotate(82.4386) scale(7.12445 14.1539)">
<stop stop-color="#F18C0A"/>
<stop offset="1" stop-color="#DD5C03"/>
</radialGradient>
<linearGradient id="paint3_linear_349_274" x1="17.0937" y1="9.0625" x2="13.3125" y2="6.09375" gradientUnits="userSpaceOnUse">
<stop stop-color="#D54802"/>
<stop offset="1" stop-color="#E56E05"/>
</linearGradient>
</defs>
</svg>
