<svg width="auto" height="auto" viewBox="0 0 16 16" fill="none" xmlns="http://www.w3.org/2000/svg">
<path d="M8.00873 0C8.61097 0.00694115 9.21086 0.076523 9.7987 0.207622C10.0553 0.26485 10.2472 0.478779 10.2763 0.740074L10.416 1.99287C10.4792 2.5681 10.9649 3.00377 11.5439 3.00438C11.6995 3.00462 11.8535 2.97221 11.9973 2.90859L13.1465 2.40375C13.3855 2.29875 13.6648 2.35599 13.8432 2.54656C14.6737 3.43356 15.2923 4.49736 15.6523 5.65793C15.7299 5.90818 15.6405 6.18015 15.4296 6.33561L14.411 7.08645C14.1204 7.29995 13.9488 7.639 13.9488 7.99957C13.9488 8.36015 14.1204 8.6992 14.4116 8.91317L15.4311 9.66427C15.6421 9.81971 15.7315 10.0917 15.6539 10.342C15.294 11.5024 14.6759 12.5661 13.8458 13.4532C13.6676 13.6438 13.3885 13.7012 13.1495 13.5965L11.9956 13.0909C11.6655 12.9464 11.2864 12.9676 10.9744 13.1479C10.6624 13.3282 10.4548 13.6461 10.4151 14.0043L10.2764 15.257C10.2478 15.5153 10.06 15.7278 9.80718 15.7879C8.61871 16.0707 7.38047 16.0707 6.192 15.7879C5.93918 15.7278 5.75139 15.5153 5.72279 15.257L5.58427 14.0062C5.54358 13.6487 5.33563 13.3317 5.02391 13.152C4.71218 12.9723 4.33367 12.9513 4.00464 13.0949L2.85049 13.6006C2.61143 13.7053 2.3323 13.6478 2.15404 13.4572C1.32355 12.569 0.705348 11.5041 0.345968 10.3424C0.268562 10.0922 0.357997 9.82043 0.568857 9.66509L1.58903 8.91352C1.87961 8.70002 2.05122 8.36097 2.05122 8.0004C2.05122 7.63982 1.87961 7.30077 1.58865 7.08699L0.569116 6.33671C0.357943 6.18131 0.268425 5.90917 0.346105 5.65875C0.706107 4.49819 1.32463 3.43438 2.15514 2.54738C2.33358 2.35681 2.61284 2.29957 2.85186 2.40457L4.00089 2.90932C4.33151 3.05441 4.7116 3.0325 5.02501 2.8494C5.33707 2.66839 5.54482 2.35014 5.58493 1.99192L5.72448 0.740074C5.75362 0.478647 5.9457 0.264649 6.20248 0.207543C6.79101 0.0766523 7.39152 0.00710051 8.00873 0ZM7.9985 5.53844C6.63902 5.53844 5.53695 6.64051 5.53695 7.99998C5.53695 9.35945 6.63902 10.4615 7.9985 10.4615C9.35797 10.4615 10.46 9.35945 10.46 7.99998C10.46 6.64051 9.35797 5.53844 7.9985 5.53844Z" fill="url(#paint0_linear_422_40)"/>
<defs>
<linearGradient id="paint0_linear_422_40" x1="0.318438" y1="0" x2="15.3184" y2="16" gradientUnits="userSpaceOnUse">
<stop stop-color="#9E00FF"/>
<stop offset="1" stop-color="#4558FF"/>
</linearGradient>
</defs>
</svg>
