<svg width="auto" height="auto" viewBox="0 0 16 16" fill="none" xmlns="http://www.w3.org/2000/svg">
<path d="M1.58333 2.4C1.26117 2.4 1 2.66863 1 3V7.2C1 7.47156 1.0106 7.73824 1.03176 8H8.00007V0C7.8769 -1.40942e-05 7.75372 0.0399859 7.65 0.12C5.67286 1.64522 3.65487 2.4 1.58333 2.4Z" fill="#C8CDD0"/>
<path d="M14.4167 2.4C14.7389 2.4 15.0001 2.66863 15.0001 3V7.2C15.0001 7.47156 14.9895 7.73824 14.9683 8H8V0C8.12317 -1.40942e-05 8.24635 0.0399859 8.35007 0.12C10.3272 1.64522 12.3452 2.4 14.4167 2.4Z" fill="#919CA1"/>
<path d="M7.96831 16C8.04084 16 8.11337 15.9861 8.18205 15.9582C12.3634 14.264 14.6459 11.5948 14.9365 8H7.96831V16Z" fill="#75838A"/>
<path d="M7.96818 16C7.89565 16 7.82312 15.9861 7.75444 15.9582C3.57305 14.264 1.29058 11.5948 1 8H7.96818V16Z" fill="#ACB5B9"/>
<path d="M1.5 3C1.5 2.9314 1.55049 2.9 1.58333 2.9C3.78594 2.9 5.90857 2.09487 7.9554 0.515891C7.97025 0.504438 7.98563 0.499998 8.00001 0.5C8.01438 0.500002 8.02976 0.504441 8.0446 0.515891C10.0914 2.09487 12.2141 2.9 14.4167 2.9C14.4495 2.9 14.5 2.9314 14.5 3V7.2C14.5 7.45855 14.4899 7.71178 14.4699 7.95972C14.1988 11.3136 12.0871 13.8493 8.02604 15.4948C8.01729 15.4984 8.00852 15.5 8.00001 15.5C7.9915 15.5 7.98272 15.4984 7.97396 15.4948C3.91294 13.8493 1.80124 11.3136 1.53013 7.95972C1.51009 7.71178 1.5 7.45855 1.5 7.2V3Z" stroke="url(#paint0_linear_351_287)"/>
<path d="M1.5 3C1.5 2.9314 1.55049 2.9 1.58333 2.9C3.78594 2.9 5.90857 2.09487 7.9554 0.515891C7.97025 0.504438 7.98563 0.499998 8.00001 0.5C8.01438 0.500002 8.02976 0.504441 8.0446 0.515891C10.0914 2.09487 12.2141 2.9 14.4167 2.9C14.4495 2.9 14.5 2.9314 14.5 3V7.2C14.5 7.45855 14.4899 7.71178 14.4699 7.95972C14.1988 11.3136 12.0871 13.8493 8.02604 15.4948C8.01729 15.4984 8.00852 15.5 8.00001 15.5C7.9915 15.5 7.98272 15.4984 7.97396 15.4948C3.91294 13.8493 1.80124 11.3136 1.53013 7.95972C1.51009 7.71178 1.5 7.45855 1.5 7.2V3Z" stroke="url(#paint1_linear_351_287)" stroke-opacity="0.3"/>
<defs>
<linearGradient id="paint0_linear_351_287" x1="1" y1="0" x2="15" y2="16" gradientUnits="userSpaceOnUse">
<stop stop-color="#ACB5B9"/>
<stop offset="1" stop-color="#75838A"/>
</linearGradient>
<linearGradient id="paint1_linear_351_287" x1="15" y1="16" x2="1" y2="5.96046e-08" gradientUnits="userSpaceOnUse">
<stop/>
<stop offset="0.998179" stop-opacity="0"/>
</linearGradient>
</defs>
</svg>
