<svg width="auto" height="auto" viewBox="0 0 16 16" fill="none" xmlns="http://www.w3.org/2000/svg">
<path d="M0 2.85714C0 1.27919 1.27919 0 2.85714 0H5.71429V2.85714C5.71429 3.80392 6.4818 4.57143 7.42857 4.57143H16V13.1429C16 14.7208 14.7208 16 13.1429 16H2.85714C1.27919 16 0 14.7208 0 13.1429V2.85714ZM5.71429 9.14286C5.71429 8.51167 5.20261 8 4.57143 8C3.94025 8 3.42857 8.51167 3.42857 9.14286C3.42857 9.77404 3.94025 10.2857 4.57143 10.2857C5.20261 10.2857 5.71429 9.77404 5.71429 9.14286ZM8 10.2857C8.63118 10.2857 9.14286 9.77404 9.14286 9.14286C9.14286 8.51167 8.63118 8 8 8C7.36882 8 6.85714 8.51167 6.85714 9.14286C6.85714 9.77404 7.36882 10.2857 8 10.2857ZM12.5714 9.14286C12.5714 8.51167 12.0598 8 11.4286 8C10.7974 8 10.2857 8.51167 10.2857 9.14286C10.2857 9.77404 10.7974 10.2857 11.4286 10.2857C12.0598 10.2857 12.5714 9.77404 12.5714 9.14286ZM16 3.42857V2.85714C16 1.27919 14.7208 0 13.1429 0H6.85714V2.85714C6.85714 3.17273 7.11298 3.42857 7.42857 3.42857H16Z" fill="url(#paint0_linear_416_71)"/>
<path d="M16 3.42857V2.85714C16 1.27919 14.7208 0 13.1429 0H6.85714V2.85714C6.85714 3.17273 7.11298 3.42857 7.42857 3.42857H16Z" fill="black" fill-opacity="0.2"/>
<path d="M4.57143 10.2857C5.20261 10.2857 5.71428 9.77404 5.71428 9.14286C5.71428 8.51167 5.20261 8 4.57143 8C3.94024 8 3.42857 8.51167 3.42857 9.14286C3.42857 9.77404 3.94024 10.2857 4.57143 10.2857ZM9.14286 9.14286C9.14286 9.77404 8.63118 10.2857 8 10.2857C7.36882 10.2857 6.85714 9.77404 6.85714 9.14286C6.85714 8.51167 7.36882 8 8 8C8.63118 8 9.14286 8.51167 9.14286 9.14286ZM11.4286 10.2857C12.0598 10.2857 12.5714 9.77404 12.5714 9.14286C12.5714 8.51167 12.0598 8 11.4286 8C10.7974 8 10.2857 8.51167 10.2857 9.14286C10.2857 9.77404 10.7974 10.2857 11.4286 10.2857Z" fill="white"/>
<defs>
<linearGradient id="paint0_linear_416_71" x1="0" y1="0" x2="16" y2="16" gradientUnits="userSpaceOnUse">
<stop stop-color="#45A6FF"/>
<stop offset="1" stop-color="#0066FF"/>
</linearGradient>
</defs>
</svg>
